<svg width="62" height="62" viewBox="0 0 62 62" fill="none" xmlns="http://www.w3.org/2000/svg">
<mask id="mask0_28_2" style="mask-type:luminance" maskUnits="userSpaceOnUse" x="0" y="0" width="62" height="62">
<path d="M26.54 40.765C26.54 41.9261 26.0787 43.0397 25.2577 43.8607C24.4367 44.6817 23.3231 45.143 22.162 45.143C21.0009 45.143 19.8873 44.6817 19.0663 43.8607C18.2453 43.0397 17.784 41.9261 17.784 40.765V23.638C17.7869 23.0666 17.9024 22.5014 18.1241 21.9747C18.3457 21.4481 18.6692 20.9703 19.0757 20.5688C19.4823 20.1673 19.9641 19.85 20.4935 19.635C21.0229 19.4201 21.5896 19.3116 22.161 19.316H39.836C40.4087 19.3069 40.9775 19.4122 41.509 19.6255C42.0406 19.8388 42.5243 20.1559 42.9319 20.5583C43.3396 20.9607 43.6629 21.4403 43.883 21.9691C44.1031 22.4978 44.2157 23.0652 44.214 23.638C44.217 24.2138 44.1059 24.7844 43.887 25.317C43.668 25.8495 43.3456 26.3334 42.9385 26.7405C42.5313 27.1477 42.0475 27.47 41.515 27.6889C40.9824 27.9079 40.4118 28.019 39.836 28.016H26.536L26.54 40.765ZM0 57.565C0.00342943 58.7251 0.46578 59.8366 1.28607 60.6569C2.10636 61.4772 3.21793 61.9396 4.37799 61.943C4.94956 61.9402 5.51497 61.8248 6.04181 61.6031C6.56865 61.3814 7.04652 61.058 7.44812 60.6512C7.84972 60.2445 8.16715 59.7626 8.38214 59.233C8.59713 58.7034 8.70547 58.1366 8.70099 57.565V8.69998H57.567C58.1384 8.70446 58.7052 8.59615 59.2347 8.38123C59.7643 8.1663 60.2462 7.849 60.6529 7.44751C61.0596 7.04602 61.3831 6.5682 61.6048 6.04147C61.8265 5.51475 61.9421 4.94947 61.945 4.37799C61.9418 3.21785 61.4795 2.10612 60.6592 1.28577C59.8388 0.465418 58.7271 0.00316693 57.567 0H4.37799C3.21793 0.00342943 2.10636 0.46578 1.28607 1.28607C0.46578 2.10636 0.00342943 3.21793 0 4.37799V57.565Z" fill="white"/>
</mask>
<g mask="url(#mask0_28_2)">
<path d="M68.1282 9.138L67.9642 9.24701L35.2952 -28.727L35.4592 -28.836" fill="#06F7FF"/>
<path d="M68.128 9.138L67.69 9.521L35.022 -28.453L35.46 -28.836" fill="#06F6FF"/>
<path d="M67.8021 9.41599L67.3641 9.79898L34.6931 -28.184L35.1311 -28.567" fill="#06F5FF"/>
<path d="M67.5262 9.685L67.0342 10.068L34.3662 -27.906L34.8582 -28.289" fill="#07F5FF"/>
<path d="M67.2 9.90399L66.762 10.342L34.094 -27.632L34.532 -28.015" fill="#07F4FF"/>
<path d="M66.8692 10.177L66.4312 10.615L33.7632 -27.359L34.2012 -27.797" fill="#08F4FF"/>
<path d="M66.595 10.451L66.1031 10.834L33.4351 -27.14L33.9271 -27.523" fill="#08F3FF"/>
<path d="M66.2672 10.724L65.8292 11.107L33.1611 -26.867L33.5991 -27.25" fill="#08F2FF"/>
<path d="M65.994 10.998L65.501 11.381L32.833 -26.593L33.325 -26.976" fill="#09F2FF"/>
<path d="M65.6661 11.271L65.2281 11.654L32.5591 -26.32L32.9971 -26.703" fill="#09F1FF"/>
<path d="M65.3372 11.49L64.8992 11.928L32.2312 -26.046L32.6692 -26.429" fill="#0AF1FF"/>
<path d="M65.0631 11.764L64.5711 12.202L31.9031 -25.772L32.3951 -26.21" fill="#0AF0FF"/>
<path d="M64.7352 12.038L64.2972 12.421L31.6292 -25.499L32.0671 -25.937" fill="#0AEFFF"/>
<path d="M64.407 12.312L63.969 12.695L31.301 -25.279L31.793 -25.662" fill="#0BEFFF"/>
<path d="M64.1331 12.585L63.6401 12.968L30.9722 -25.006L31.4642 -25.389" fill="#0BEEFF"/>
<path d="M63.8052 12.859L63.3672 13.242L30.6992 -24.732L31.1372 -25.115" fill="#0CEEFF"/>
<path d="M63.5321 13.132L63.0401 13.515L30.3711 -24.459L30.8631 -24.842" fill="#0CEDFF"/>
<path d="M63.2022 13.352L62.7642 13.79L30.0962 -24.184L30.5342 -24.622" fill="#0CECFF"/>
<path d="M62.8751 13.625L62.4371 14.008L29.769 -23.912L30.207 -24.35" fill="#0DECFF"/>
<path d="M62.6012 13.899L62.1092 14.282L29.4412 -23.692L29.9332 -24.075" fill="#0DEBFF"/>
<path d="M62.272 14.172L61.834 14.555L29.166 -23.419L29.604 -23.802" fill="#0EEBFF"/>
<path d="M61.9451 14.446L61.5071 14.829L28.8391 -23.146L29.3311 -23.529" fill="#0EEAFF"/>
<path d="M61.6661 14.719L61.1741 15.102L28.5061 -22.872L28.9981 -23.255" fill="#0EE9FF"/>
<path d="M61.342 14.938L60.9041 15.376L28.2361 -22.598L28.6741 -23.0359" fill="#0FE9FF"/>
<path d="M61.0682 15.211L60.5762 15.594L27.9082 -22.326L28.4002 -22.764" fill="#0FE8FF"/>
<path d="M60.7401 15.485L60.302 15.868L27.634 -22.106L28.072 -22.489" fill="#10E8FF"/>
<path d="M60.4121 15.762L59.9741 16.145L27.3062 -21.829L27.7441 -22.212" fill="#10E7FF"/>
<path d="M60.141 16.032L59.649 16.415L26.978 -21.555L27.471 -21.938" fill="#10E6FF"/>
<path d="M59.8101 16.306L59.3721 16.689L26.7041 -21.285L27.1421 -21.668" fill="#11E6FF"/>
<path d="M59.5381 16.525L59.0461 16.963L26.3782 -21.011L26.8702 -21.449" fill="#11E5FF"/>
<path d="M59.2081 16.799L58.7161 17.182L26.0481 -20.742L26.5401 -21.18" fill="#12E5FF"/>
<path d="M58.8801 17.072L58.4421 17.455L25.7742 -20.519L26.2122 -20.902" fill="#12E4FF"/>
<path d="M58.606 17.346L58.113 17.729L25.4451 -20.246L25.937 -20.629" fill="#12E3FF"/>
<path d="M58.2781 17.619L57.8401 18.002L25.1721 -19.972L25.6101 -20.355" fill="#13E3FF"/>
<path d="M57.949 17.89L57.511 18.273L24.843 -19.699L25.281 -20.082" fill="#13E2FF"/>
<path d="M57.6761 18.112L57.1841 18.55L24.5151 -19.427L25.0071 -19.81" fill="#14E2FF"/>
<path d="M57.3482 18.385L56.9102 18.768L24.2422 -19.152L24.6802 -19.59" fill="#14E1FF"/>
<path d="M57.074 18.658L56.5821 19.041L23.9141 -18.933L24.407 -19.316" fill="#14E0FF"/>
<path d="M56.7462 18.933L56.2542 19.316L23.6401 -18.658L24.0781 -19.041" fill="#15E0FF"/>
<path d="M56.4171 19.206L55.979 19.589L23.311 -18.385L23.749 -18.768" fill="#15DFFF"/>
<path d="M56.1441 19.48L55.6521 19.863L22.9841 -18.111L23.4761 -18.494" fill="#16DFFF"/>
<path d="M55.8162 19.699L55.3782 20.137L22.7102 -17.837L23.1482 -18.22" fill="#16DEFF"/>
<path d="M55.4871 19.972L55.0491 20.41L22.3811 -17.564L22.8191 -18.002" fill="#16DDFF"/>
<path d="M55.2142 20.246L54.7222 20.629L22.0532 -17.346L22.5452 -17.729" fill="#17DDFF"/>
<path d="M54.886 20.519L54.448 20.902L21.78 -17.072L22.218 -17.455" fill="#17DCFF"/>
<path d="M54.6122 20.793L54.1202 21.176L21.4521 -16.798L21.9442 -17.181" fill="#18DCFF"/>
<path d="M54.283 21.066L53.791 21.449L21.177 -16.525L21.615 -16.908" fill="#18DBFF"/>
<path d="M53.9551 21.285L53.5171 21.723L20.8491 -16.252L21.2871 -16.635" fill="#18DAFF"/>
<path d="M53.6822 21.559L53.1902 21.997L20.5222 -15.978L21.0142 -16.416" fill="#19DAFF"/>
<path d="M53.3541 21.833L52.9161 22.216L20.248 -15.758L20.686 -16.141" fill="#19D9FF"/>
<path d="M53.0252 22.109L52.5872 22.492L19.9192 -15.485L20.3572 -15.868" fill="#1AD9FF"/>
<path d="M52.751 22.38L52.259 22.763L19.5901 -15.208L20.082 -15.591" fill="#1AD8FF"/>
<path d="M52.4221 22.653L51.9841 23.036L19.3162 -14.938L19.7542 -15.321" fill="#1AD7FF"/>
<path d="M52.15 22.872L51.658 23.31L18.99 -14.664L19.482 -15.047" fill="#1BD7FF"/>
<path d="M51.8211 23.145L51.3831 23.583L18.7141 -14.396L19.1522 -14.834" fill="#1BD6FF"/>
<path d="M51.4942 23.419L51.0562 23.802L18.3882 -14.172L18.8262 -14.555" fill="#1CD6FF"/>
<path d="M51.2191 23.693L50.7271 24.076L18.0591 -13.898L18.5511 -14.281" fill="#1CD5FF"/>
<path d="M50.8912 23.966L50.4532 24.349L17.7852 -13.625L18.2231 -14.008" fill="#1CD4FF"/>
<path d="M50.563 24.236L50.125 24.619L17.457 -13.355L17.949 -13.738" fill="#1DD4FF"/>
<path d="M50.2891 24.459L49.7971 24.897L17.1282 -13.08L17.6202 -13.463" fill="#1DD3FF"/>
<path d="M49.96 24.733L49.522 25.171L16.854 -12.804L17.292 -13.242" fill="#1ED3FF"/>
<path d="M49.6861 25.006L49.1941 25.389L16.5261 -12.531L17.0181 -12.969" fill="#1ED2FF"/>
<path d="M49.3582 25.28L48.9202 25.663L16.2522 -12.311L16.6902 -12.694" fill="#1ED1FF"/>
<path d="M49.03 25.553L48.592 25.936L15.9241 -12.038L16.3621 -12.421" fill="#1FD1FF"/>
<path d="M48.7562 25.827L48.2642 26.21L15.5962 -11.764L16.0882 -12.147" fill="#1FD0FF"/>
<path d="M48.428 26.1L47.99 26.483L15.322 -11.491L15.76 -11.874" fill="#20D0FF"/>
<path d="M48.1002 26.32L47.6622 26.758L14.9941 -11.216L15.4861 -11.654" fill="#20CFFF"/>
<path d="M47.826 26.593L47.334 26.976L14.666 -10.944L15.158 -11.382" fill="#20CEFF"/>
<path d="M47.498 26.867L47.0601 27.25L14.3921 -10.725L14.8301 -11.108" fill="#21CEFF"/>
<path d="M47.2242 27.14L46.7322 27.523L14.0642 -10.452L14.5562 -10.835" fill="#21CDFF"/>
<path d="M46.8961 27.414L46.458 27.797L13.79 -10.177L14.228 -10.56" fill="#22CDFF"/>
<path d="M46.5681 27.688L46.1301 28.071L13.4622 -9.90302L13.9001 -10.286" fill="#22CCFF"/>
<path d="M46.2941 27.906L45.8021 28.344L13.1331 -9.63098L13.6251 -10.069" fill="#22CBFF"/>
<path d="M45.9661 28.18L45.5281 28.563L12.8601 -9.35699L13.2981 -9.79498" fill="#23CBFF"/>
<path d="M45.6922 28.455L45.1992 28.838L12.5312 -9.13599L13.0232 -9.51898" fill="#23CAFF"/>
<path d="M45.3641 28.727L44.8721 29.11L12.2031 -8.862L12.6962 -9.245" fill="#24CAFF"/>
<path d="M45.0362 29L44.5982 29.383L11.9292 -8.59198L12.3672 -8.97498" fill="#24C9FF"/>
<path d="M44.762 29.274L44.27 29.657L11.6021 -8.31702L12.0941 -8.70001" fill="#24C8FF"/>
<path d="M44.4341 29.493L43.9961 29.931L11.3281 -8.04297L11.7661 -8.48096" fill="#25C8FF"/>
<path d="M44.105 29.767L43.667 30.15L10.999 -7.76599L11.437 -8.20398" fill="#25C7FF"/>
<path d="M43.8331 30.04L43.3401 30.423L10.6721 -7.55096L11.1651 -7.93396" fill="#26C7FF"/>
<path d="M43.5042 30.314L43.0662 30.697L10.3982 -7.27698L10.8362 -7.65997" fill="#26C6FF"/>
<path d="M43.23 30.583L42.738 30.966L10.0701 -7.008L10.5621 -7.39099" fill="#26C5FF"/>
<path d="M42.9011 30.861L42.4091 31.244L9.79517 -6.73401L10.2332 -7.117" fill="#27C5FF"/>
<path d="M42.573 31.08L42.135 31.518L9.46704 -6.45599L9.90503 -6.83899" fill="#27C4FF"/>
<path d="M42.3001 31.354L41.8081 31.792L9.14014 -6.18201L9.63312 -6.62" fill="#28C4FF"/>
<path d="M41.9712 31.627L41.5332 32.01L8.86523 -5.96399L9.30322 -6.34698" fill="#28C3FF"/>
<path d="M41.6431 31.901L41.2051 32.284L8.53711 -5.69L8.9751 -6.073" fill="#28C2FF"/>
<path d="M41.369 32.175L40.876 32.558L8.20801 -5.41602L8.70001 -5.79901" fill="#29C2FF"/>
<path d="M41.0401 32.448L40.6021 32.828L7.93408 -5.146L8.37213 -5.52899" fill="#29C1FF"/>
<path d="M40.7672 32.667L40.2742 33.105L7.6062 -4.86902L8.09924 -5.25201" fill="#2AC1FF"/>
<path d="M40.439 32.94L39.947 33.378L7.33301 -4.59601L7.771 -5.034" fill="#2AC0FF"/>
<path d="M40.1102 33.214L39.6722 33.597L7.00415 -4.37698L7.4422 -4.76001" fill="#2ABFFF"/>
<path d="M39.8372 33.487L39.3452 33.87L6.67725 -4.10498L7.16919 -4.48798" fill="#2BBFFF"/>
<path d="M39.509 33.761L39.071 34.144L6.40308 -3.82999L6.84106 -4.21301" fill="#2BBEFF"/>
<path d="M39.18 34.034L38.742 34.417L6.07397 -3.55798L6.51202 -3.94098" fill="#2CBEFF"/>
<path d="M38.9061 34.253L38.4141 34.691L5.74609 -3.28299L6.2381 -3.66602" fill="#2CBDFF"/>
<path d="M38.5781 34.527L38.1401 34.965L5.47217 -3.00897L5.91016 -3.44696" fill="#2CBCFF"/>
<path d="M38.305 34.802L37.813 35.185L5.14502 -2.789L5.638 -3.172" fill="#2DBCFF"/>
<path d="M37.9771 35.074L37.5391 35.457L4.87109 -2.51498L5.30908 -2.89801" fill="#2DBBFF"/>
<path d="M37.648 35.348L37.21 35.731L4.54199 -2.24402L4.98004 -2.62701" fill="#2EBBFF"/>
<path d="M37.3741 35.622L36.8821 36.005L4.21313 -1.96997L4.70514 -2.35297" fill="#2EBAFF"/>
<path d="M37.0461 35.84L36.6082 36.278L3.94019 -1.69598L4.37817 -2.07898" fill="#2EB9FF"/>
<path d="M36.7181 36.114L36.2801 36.552L3.61108 -1.41998L4.04907 -1.85797" fill="#2FB9FF"/>
<path d="M36.4442 36.387L35.9512 36.77L3.2832 -1.14999L3.77521 -1.58801" fill="#2FB8FF"/>
<path d="M36.116 36.662L35.678 37.045L3.00806 -0.929993L3.44604 -1.31299" fill="#30B8FF"/>
<path d="M35.8421 36.935L35.3501 37.318L2.68213 -0.656006L3.17413 -1.039" fill="#30B7FF"/>
<path d="M35.514 37.213L35.076 37.596L2.40503 -0.387024L2.84302 -0.77002" fill="#30B6FF"/>
<path d="M35.1861 37.482L34.7481 37.865L2.08008 -0.109009L2.51813 -0.492004" fill="#31B6FF"/>
<path d="M34.9122 37.701L34.4202 38.139L1.7522 0.165009L2.2442 -0.27301" fill="#31B5FF"/>
<path d="M34.5831 37.974L34.1451 38.357L1.47705 0.437012L1.91504 -0.000976562" fill="#32B5FF"/>
<path d="M34.2562 38.248L33.8182 38.631L1.15015 0.657013L1.64215 0.273987" fill="#32B4FF"/>
<path d="M33.9821 38.521L33.4891 38.904L0.821045 0.929016L1.31403 0.546021" fill="#32B3FF"/>
<path d="M33.6541 38.795L33.2161 39.178L0.548096 1.20401L0.986084 0.820984" fill="#33B3FF"/>
<path d="M33.38 39.068L32.888 39.451L0.218994 1.47699L0.710999 1.09399" fill="#33B2FF"/>
<path d="M33.0511 39.288L32.6131 39.726L-0.0549316 1.75201L0.383118 1.31403" fill="#34B2FF"/>
<path d="M32.7241 39.561L32.2861 39.944L-0.381836 2.02402L0.0561523 1.586" fill="#34B1FF"/>
<path d="M32.4501 39.835L31.9581 40.218L-0.710938 2.24402L-0.218933 1.86102" fill="#34B0FF"/>
<path d="M32.1212 40.109L31.6832 40.492L-0.984863 2.51801L-0.546814 2.13501" fill="#35B0FF"/>
<path d="M31.793 40.382L31.355 40.765L-1.31299 2.78998L-0.820984 2.40698" fill="#35AFFF"/>
<path d="M31.5201 40.656L31.0281 41.039L-1.63989 3.065L-1.14789 2.68201" fill="#36AFFF"/>
<path d="M31.1912 40.874L30.7532 41.312L-1.91479 3.33804L-1.47681 2.90002" fill="#36AEFF"/>
<path d="M30.9171 41.148L30.4241 41.531L-2.2439 3.61099L-1.75092 3.17297" fill="#36ADFF"/>
<path d="M30.5892 41.421L30.1512 41.804L-2.51685 3.83099L-2.0788 3.448" fill="#37ADFF"/>
<path d="M30.261 41.695L29.823 42.078L-2.84497 4.103L-2.40698 3.71997" fill="#37ACFF"/>
<path d="M29.9872 41.968L29.4952 42.351L-3.17285 4.37701L-2.68085 3.99402" fill="#38ACFF"/>
<path d="M29.659 42.243L29.221 42.626L-3.44702 4.65103L-3.00897 4.26801" fill="#38ABFF"/>
<path d="M29.3851 42.461L28.8922 42.899L-3.77588 4.92703L-3.28387 4.48901" fill="#38AAFF"/>
<path d="M29.0571 42.735L28.5651 43.118L-4.04883 5.198L-3.61084 4.76001" fill="#39AAFF"/>
<path d="M28.7281 43.008L28.2901 43.391L-4.37793 5.41699L-3.93994 5.034" fill="#39A9FF"/>
<path d="M28.4552 43.282L27.9632 43.665L-4.70483 5.69104L-4.21283 5.30804" fill="#3AA9FF"/>
<path d="M28.127 43.559L27.689 43.942L-4.979 5.96698L-4.54095 5.58398" fill="#3AA8FF"/>
<path d="M27.7982 43.829L27.3602 44.212L-5.30786 6.242L-4.86987 5.85901" fill="#3AA7FF"/>
<path d="M27.524 44.048L27.032 44.486L-5.63599 6.51199L-5.14398 6.12897" fill="#3BA7FF"/>
<path d="M27.1961 44.322L26.7581 44.76L-5.90991 6.78601L-5.47186 6.34802" fill="#3BA6FF"/>
<path d="M26.9222 44.596L26.4302 44.979L-6.23779 7.00403L-5.74579 6.62103" fill="#3CA6FF"/>
<path d="M26.595 44.869L26.102 45.252L-6.51099 7.27802L-6.073 6.89502" fill="#3CA5FF"/>
<path d="M26.2662 45.143L25.8282 45.5261L-6.83984 7.55103L-6.40179 7.16803" fill="#3CA4FF"/>
<path d="M25.993 45.416L25.5001 45.804L-7.16797 7.82898L-6.67596 7.44598" fill="#3DA4FF"/>
<path d="M25.665 45.635L25.2271 46.073L-7.44092 8.099L-7.00293 7.716" fill="#3DA3FF"/>
<path d="M25.336 45.908L24.898 46.346L-7.77002 8.37204L-7.33203 7.93402" fill="#3EA3FF"/>
<path d="M25.0621 46.182L24.5701 46.565L-8.0979 8.59L-7.6059 8.20697" fill="#3EA2FF"/>
<path d="M24.7342 46.455L24.2962 46.838L-8.37183 8.86404L-7.93378 8.48102" fill="#3EA1FF"/>
<path d="M24.461 46.729L23.969 47.112L-8.69897 9.13699L-8.20697 8.75397" fill="#3FA1FF"/>
<path d="M24.1321 47.002L23.6942 47.385L-8.97388 9.41104L-8.53589 9.02802" fill="#3FA0FF"/>
<path d="M23.804 47.221L23.366 47.659L-9.302 9.68402L-8.86395 9.30103" fill="#40A0FF"/>
<path d="M23.5301 47.495L23.0381 47.933L-9.62988 9.95898L-9.13794 9.521" fill="#409FFF"/>
<path d="M23.201 47.769L22.763 48.152L-9.90503 10.178L-9.46704 9.79504" fill="#409EFF"/>
<path d="M22.8741 48.043L22.4361 48.426L-10.2319 10.451L-9.79388 10.068" fill="#419EFF"/>
<path d="M22.6002 48.316L22.1082 48.699L-10.5598 10.725L-10.0678 10.342" fill="#419DFF"/>
<path d="M22.272 48.59L21.834 48.973L-10.834 10.999L-10.3959 10.616" fill="#429DFF"/>
<path d="M21.9982 48.81L21.5062 49.248L-11.1628 11.272L-10.6708 10.889" fill="#429CFF"/>
<path d="M21.669 49.083L21.231 49.521L-11.437 11.547L-10.999 11.109" fill="#429BFF"/>
<path d="M21.3421 49.356L20.9041 49.739L-11.7639 11.819L-11.3259 11.381" fill="#439BFF"/>
<path d="M21.0681 49.63L20.576 50.0131L-12.095 12.038L-11.603 11.655" fill="#439AFF"/>
<path d="M20.7391 49.906L20.3011 50.289L-12.3669 12.315L-11.929 11.932" fill="#449AFF"/>
<path d="M20.412 50.177L19.974 50.56L-12.697 12.589L-12.204 12.206" fill="#4499FF"/>
<path d="M20.1381 50.45L19.6461 50.833L-13.022 12.859L-12.53 12.476" fill="#4498FF"/>
<path d="M19.8092 50.669L19.3712 51.107L-13.2998 13.132L-12.8618 12.694" fill="#4598FF"/>
<path d="M19.535 50.942L19.043 51.325L-13.626 13.401L-13.134 12.963" fill="#4597FF"/>
<path d="M19.2072 51.216L18.7692 51.599L-13.9028 13.625L-13.4648 13.242" fill="#4697FF"/>
<path d="M18.8781 51.4901L18.4401 51.873L-14.2219 13.898L-13.7839 13.515" fill="#4696FF"/>
<path d="M18.6051 51.763L18.1131 52.146L-14.5549 14.171L-14.0629 13.788" fill="#4695FF"/>
<path d="M18.275 52.0331L17.837 52.416L-14.825 14.445L-14.387 14.062" fill="#4795FF"/>
<path d="M17.9481 52.256L17.5101 52.6941L-15.158 14.72L-14.666 14.282" fill="#4794FF"/>
<path d="M17.6752 52.53L17.1832 52.913L-15.4849 14.993L-14.9929 14.555" fill="#4894FF"/>
<path d="M17.3472 52.803L16.9092 53.186L-15.7588 15.212L-15.3208 14.829" fill="#4893FF"/>
<path d="M17.0731 53.077L16.5811 53.46L-16.0869 15.486L-15.5949 15.103" fill="#4892FF"/>
<path d="M16.7452 53.35L16.3072 53.733L-16.3608 15.759L-15.9228 15.376" fill="#4992FF"/>
<path d="M16.4161 53.624L15.9781 54.007L-16.6899 16.032L-16.252 15.649" fill="#4991FF"/>
<path d="M16.1432 53.841L15.6501 54.279L-17.0178 16.305L-16.5248 15.867" fill="#4A91FF"/>
<path d="M15.815 54.116L15.377 54.499L-17.291 16.579L-16.853 16.141" fill="#4A90FF"/>
<path d="M15.5411 54.39L15.0491 54.773L-17.6189 16.799L-17.1269 16.416" fill="#4A8FFF"/>
<path d="M15.212 54.664L14.72 55.047L-17.948 17.073L-17.456 16.69" fill="#4B8FFF"/>
<path d="M14.8841 54.937L14.4461 55.32L-18.2219 17.346L-17.7839 16.963" fill="#4B8EFF"/>
<path d="M14.6112 55.211L14.1182 55.594L-18.5498 17.62L-18.0578 17.237" fill="#4C8EFF"/>
<path d="M14.283 55.43L13.845 55.868L-18.823 17.894L-18.3849 17.511" fill="#4C8DFF"/>
<path d="M13.9542 55.703L13.5162 56.141L-19.1519 18.166L-18.7139 17.728" fill="#4C8CFF"/>
<path d="M13.6801 55.977L13.188 56.36L-19.48 18.386L-18.988 18.003" fill="#4D8CFF"/>
<path d="M13.3521 56.252L12.9141 56.635L-19.7539 18.661L-19.3159 18.278" fill="#4D8BFF"/>
<path d="M13.0792 56.524L12.5872 56.907L-20.0818 18.935L-19.5888 18.552" fill="#4E8BFF"/>
<path d="M12.7501 56.797L12.2581 57.18L-20.356 19.206L-19.918 18.823" fill="#4E8AFF"/>
<path d="M12.4222 57.0161L11.9842 57.454L-20.6838 19.48L-20.2418 19.101" fill="#4E89FF"/>
<path d="M12.1481 57.29L11.6561 57.728L-21.012 19.754L-20.52 19.316" fill="#4F89FF"/>
<path d="M11.8201 57.564L11.3821 57.947L-21.2859 19.973L-20.8479 19.59" fill="#4F88FF"/>
<path d="M11.492 57.837L11.054 58.2201L-21.614 20.246L-21.176 19.863" fill="#5088FF"/>
<path d="M11.2162 58.111L10.7242 58.494L-21.9438 20.52L-21.4518 20.137" fill="#5087FF"/>
<path d="M10.8892 58.38L10.4512 58.763L-22.2168 20.793L-21.7788 20.41" fill="#5086FF"/>
<path d="M10.6141 58.603L10.1221 59.041L-22.5439 21.063L-22.0509 20.68" fill="#5186FF"/>
<path d="M10.2881 58.876L9.79614 59.314L-22.8179 21.34L-22.3799 20.902" fill="#5185FF"/>
<path d="M9.95905 59.15L9.521 59.533L-23.147 21.558L-22.709 21.175" fill="#5285FF"/>
<path d="M9.68512 59.424L9.19318 59.807L-23.4749 21.833L-22.9828 21.45" fill="#5284FF"/>
<path d="M9.35699 59.6971L8.91901 60.08L-23.749 22.106L-23.311 21.723" fill="#5283FF"/>
<path d="M9.02911 59.972L8.59106 60.355L-24.0769 22.38L-23.6389 21.997" fill="#5383FF"/>
<path d="M8.75623 60.19L8.26422 60.628L-24.4048 22.653L-23.9118 22.27" fill="#5382FF"/>
<path d="M8.42706 60.4641L7.98907 60.902L-24.679 22.928L-24.241 22.4901" fill="#5482FF"/>
<path d="M8.1532 60.737L7.66119 61.12L-25.0068 23.146L-24.5138 22.763" fill="#5481FF"/>
<path d="M7.82501 61.011L7.38702 61.394L-25.281 23.419L-24.843 23.036" fill="#5480FF"/>
<path d="M7.49713 61.284L7.05908 61.667L-25.6089 23.693L-25.1709 23.31" fill="#5580FF"/>
<path d="M7.22302 61.558L6.73102 61.941L-25.937 23.967L-25.445 23.584" fill="#557FFF"/>
<path d="M6.89508 61.777L6.45709 62.215L-26.2109 24.241L-25.7729 23.858" fill="#567FFF"/>
<path d="M6.56622 62.051L6.12817 62.489L-26.5398 24.515L-26.1018 24.077" fill="#567EFF"/>
<path d="M6.29303 62.324L5.80109 62.707L-26.8669 24.787L-26.3749 24.349" fill="#567DFF"/>
<path d="M5.96515 62.599L5.52716 62.982L-27.1409 25.006L-26.7029 24.623" fill="#577DFF"/>
<path d="M5.69104 62.871L5.19904 63.254L-27.47 25.282L-26.977 24.899" fill="#577CFF"/>
<path d="M5.3631 63.145L4.92511 63.528L-27.7439 25.554L-27.3059 25.171" fill="#587CFF"/>
<path d="M5.03522 63.418L4.59723 63.801L-28.0708 25.827L-27.6328 25.444" fill="#587BFF"/>
<path d="M4.7612 63.637L4.26816 64.075L-28.4028 26.1L-27.9108 25.662" fill="#587AFF"/>
<path d="M4.43317 63.91L3.99518 64.293L-28.6729 26.377L-28.2348 25.939" fill="#597AFF"/>
<path d="M4.10413 64.184L3.83008 64.458L-28.8379 26.483L-28.5099 26.209" fill="#5979FF"/>
</g>
</svg>
